<svg width="244" height="126" viewBox="0 0 244 126" fill="none" xmlns="http://www.w3.org/2000/svg">
<path d="M24.22 53.84C22.4 53.84 20.6033 53.5133 18.83 52.86C17.1033 52.16 15.6567 51.18 14.49 49.92L14.77 47.05V67.7H5.04V21.71H13.44L14.84 27.66L14.07 25.56C15.6567 24.2067 17.43 23.0867 19.39 22.2C21.35 21.3133 23.6133 20.87 26.18 20.87C29.0267 20.87 31.57 21.5467 33.81 22.9C36.05 24.2067 37.8 26.12 39.06 28.64C40.3667 31.1133 41.02 34.1 41.02 37.6C41.02 41.0533 40.2967 43.9933 38.85 46.42C37.4033 48.8467 35.42 50.69 32.9 51.95C30.38 53.21 27.4867 53.84 24.22 53.84ZM22.26 46.14C23.8467 46.14 25.2933 45.79 26.6 45.09C27.9533 44.39 29.0267 43.41 29.82 42.15C30.66 40.8433 31.08 39.3733 31.08 37.74C31.08 36.0133 30.7067 34.52 29.96 33.26C29.26 31.9533 28.28 30.95 27.02 30.25C25.8067 29.5033 24.4533 29.13 22.96 29.13C21.6533 29.13 20.4867 29.3167 19.46 29.69C18.48 30.0167 17.5933 30.53 16.8 31.23C16.0533 31.8833 15.4 32.7233 14.84 33.75V41.24C15.2133 42.22 15.75 43.0833 16.45 43.83C17.15 44.5767 17.99 45.16 18.97 45.58C19.9967 45.9533 21.0933 46.14 22.26 46.14ZM63.7716 53.84C60.0383 53.84 56.865 53.14 54.2516 51.74C51.685 50.34 49.725 48.4033 48.3716 45.93C47.0183 43.4567 46.3416 40.61 46.3416 37.39C46.3416 34.31 47.135 31.5333 48.7216 29.06C50.3083 26.5867 52.4316 24.6267 55.0916 23.18C57.7516 21.6867 60.715 20.94 63.9816 20.94C68.3683 20.94 71.9616 22.2233 74.7616 24.79C77.6083 27.31 79.4516 30.9733 80.2916 35.78L56.4916 43.34L54.3216 38.02L71.5416 32.21L69.5116 33.12C69.1383 31.9067 68.4616 30.8567 67.4816 29.97C66.5483 29.0367 65.125 28.57 63.2116 28.57C61.765 28.57 60.4816 28.92 59.3616 29.62C58.2883 30.2733 57.4483 31.23 56.8416 32.49C56.2816 33.7033 56.0016 35.15 56.0016 36.83C56.0016 38.7433 56.3516 40.3533 57.0516 41.66C57.7516 42.92 58.7083 43.8767 59.9216 44.53C61.135 45.1833 62.4883 45.51 63.9816 45.51C65.055 45.51 66.0816 45.3233 67.0616 44.95C68.0883 44.5767 69.0916 44.0867 70.0716 43.48L74.4116 50.76C72.7783 51.6933 71.005 52.44 69.0916 53C67.225 53.56 65.4516 53.84 63.7716 53.84ZM96.303 22.41L97.073 27.87L96.933 27.38C98.0064 25.4667 99.523 23.9267 101.483 22.76C103.443 21.5467 105.846 20.94 108.693 20.94C111.586 20.94 113.99 21.8033 115.903 23.53C117.863 25.21 118.866 27.4033 118.913 30.11V53H109.113V33.75C109.066 32.3967 108.693 31.3233 107.993 30.53C107.34 29.69 106.22 29.27 104.633 29.27C103.14 29.27 101.833 29.76 100.713 30.74C99.593 31.72 98.7297 33.05 98.123 34.73C97.5164 36.41 97.213 38.3467 97.213 40.54V53H87.413V22.41H96.303Z" fill="#0D0E43"/>
<path d="M2.66 93.32C2.66 90.1933 3.38333 87.3933 4.83 84.92C6.32333 82.4467 8.4 80.51 11.06 79.11C13.72 77.6633 16.7767 76.94 20.23 76.94C23.73 76.94 26.7633 77.6633 29.33 79.11C31.8967 80.51 33.8567 82.4467 35.21 84.92C36.61 87.3933 37.31 90.1933 37.31 93.32C37.31 96.4467 36.61 99.27 35.21 101.79C33.8567 104.263 31.8967 106.223 29.33 107.67C26.7633 109.117 23.6833 109.84 20.09 109.84C16.73 109.84 13.72 109.187 11.06 107.88C8.44667 106.573 6.39333 104.683 4.9 102.21C3.40667 99.7367 2.66 96.7733 2.66 93.32ZM12.53 93.39C12.53 94.9767 12.8567 96.4233 13.51 97.73C14.1633 98.99 15.05 99.9933 16.17 100.74C17.29 101.487 18.55 101.86 19.95 101.86C21.49 101.86 22.82 101.487 23.94 100.74C25.06 99.9933 25.9233 98.99 26.53 97.73C27.1367 96.4233 27.44 94.9767 27.44 93.39C27.44 91.7567 27.1367 90.31 26.53 89.05C25.9233 87.79 25.06 86.7867 23.94 86.04C22.82 85.2933 21.49 84.92 19.95 84.92C18.55 84.92 17.29 85.2933 16.17 86.04C15.05 86.7867 14.1633 87.79 13.51 89.05C12.8567 90.31 12.53 91.7567 12.53 93.39ZM53.9202 78.41L54.6902 83.8L54.5502 83.38C55.7636 81.3267 57.2802 79.74 59.1002 78.62C60.9202 77.4533 63.1136 76.87 65.6802 76.87C67.3602 76.87 68.8302 77.1033 70.0902 77.57C71.3969 78.0367 72.4936 78.7367 73.3802 79.67C74.2669 80.5567 74.8736 81.7233 75.2002 83.17L74.8502 83.24C76.1569 81.3267 77.7202 79.7867 79.5402 78.62C81.4069 77.4533 83.3436 76.87 85.3502 76.87C88.3836 76.87 90.7869 77.7333 92.5602 79.46C94.3802 81.14 95.3136 83.3333 95.3602 86.04V109H85.6302V90.1C85.5836 88.7467 85.3736 87.65 85.0002 86.81C84.6269 85.9233 83.7636 85.4333 82.4102 85.34C80.8236 85.34 79.4702 85.9 78.3502 87.02C77.2769 88.0933 76.4602 89.4933 75.9002 91.22C75.3869 92.9 75.1302 94.65 75.1302 96.47V109H65.3302V90.1C65.2836 88.7467 65.0269 87.65 64.5602 86.81C64.1402 85.9233 63.2536 85.4333 61.9002 85.34C60.3602 85.34 59.0536 85.9 57.9802 87.02C56.9536 88.0933 56.1602 89.47 55.6002 91.15C55.0869 92.83 54.8302 94.5567 54.8302 96.33V109H45.0302V78.41H53.9202ZM114.35 78.41L115.12 83.8L114.98 83.38C116.193 81.3267 117.71 79.74 119.53 78.62C121.35 77.4533 123.543 76.87 126.11 76.87C127.79 76.87 129.26 77.1033 130.52 77.57C131.827 78.0367 132.923 78.7367 133.81 79.67C134.697 80.5567 135.303 81.7233 135.63 83.17L135.28 83.24C136.587 81.3267 138.15 79.7867 139.97 78.62C141.837 77.4533 143.773 76.87 145.78 76.87C148.813 76.87 151.217 77.7333 152.99 79.46C154.81 81.14 155.743 83.3333 155.79 86.04V109H146.06V90.1C146.013 88.7467 145.803 87.65 145.43 86.81C145.057 85.9233 144.193 85.4333 142.84 85.34C141.253 85.34 139.9 85.9 138.78 87.02C137.707 88.0933 136.89 89.4933 136.33 91.22C135.817 92.9 135.56 94.65 135.56 96.47V109H125.76V90.1C125.713 88.7467 125.457 87.65 124.99 86.81C124.57 85.9233 123.683 85.4333 122.33 85.34C120.79 85.34 119.483 85.9 118.41 87.02C117.383 88.0933 116.59 89.47 116.03 91.15C115.517 92.83 115.26 94.5567 115.26 96.33V109H105.46V78.41H114.35ZM165.89 78.41H175.69V109H165.89V78.41ZM165.68 67.56C165.68 66.1133 166.24 64.9233 167.36 63.99C168.526 63.0567 169.763 62.59 171.07 62.59C172.376 62.59 173.566 63.0567 174.64 63.99C175.76 64.9233 176.32 66.1133 176.32 67.56C176.32 69.0067 175.76 70.1967 174.64 71.13C173.566 72.0167 172.376 72.46 171.07 72.46C169.763 72.46 168.526 72.0167 167.36 71.13C166.24 70.1967 165.68 69.0067 165.68 67.56ZM195.722 109.63C193.202 109.63 190.846 109.187 188.652 108.3C186.506 107.413 184.686 106.177 183.192 104.59L187.252 99.2C188.746 100.553 190.122 101.533 191.382 102.14C192.689 102.7 193.856 102.98 194.882 102.98C195.676 102.98 196.376 102.91 196.982 102.77C197.636 102.583 198.149 102.327 198.522 102C198.896 101.627 199.082 101.16 199.082 100.6C199.082 99.8067 198.756 99.1767 198.102 98.71C197.496 98.2433 196.702 97.87 195.722 97.59C194.742 97.2633 193.692 96.9367 192.572 96.61C189.772 95.7233 187.742 94.44 186.482 92.76C185.269 91.0333 184.662 89.1667 184.662 87.16C184.662 85.62 185.059 84.08 185.852 82.54C186.692 80.9533 187.999 79.6467 189.772 78.62C191.592 77.5467 193.926 77.01 196.772 77.01C199.339 77.01 201.509 77.2667 203.282 77.78C205.056 78.2933 206.736 79.1333 208.322 80.3L204.612 86.04C203.726 85.34 202.722 84.7567 201.602 84.29C200.529 83.7767 199.526 83.4967 198.592 83.45C197.752 83.4033 197.029 83.4967 196.422 83.73C195.862 83.9633 195.419 84.2667 195.092 84.64C194.766 85.0133 194.602 85.41 194.602 85.83C194.556 86.7167 194.882 87.4167 195.582 87.93C196.329 88.4433 197.262 88.84 198.382 89.12C199.502 89.4 200.599 89.7267 201.672 90.1C203.166 90.5667 204.449 91.1967 205.522 91.99C206.596 92.7833 207.412 93.74 207.972 94.86C208.579 95.9333 208.882 97.24 208.882 98.78C208.882 100.647 208.392 102.42 207.412 104.1C206.479 105.733 205.032 107.063 203.072 108.09C201.159 109.117 198.709 109.63 195.722 109.63ZM227.031 109.63C224.511 109.63 222.154 109.187 219.961 108.3C217.814 107.413 215.994 106.177 214.501 104.59L218.561 99.2C220.054 100.553 221.431 101.533 222.691 102.14C223.997 102.7 225.164 102.98 226.191 102.98C226.984 102.98 227.684 102.91 228.291 102.77C228.944 102.583 229.457 102.327 229.831 102C230.204 101.627 230.391 101.16 230.391 100.6C230.391 99.8067 230.064 99.1767 229.411 98.71C228.804 98.2433 228.011 97.87 227.031 97.59C226.051 97.2633 225.001 96.9367 223.881 96.61C221.081 95.7233 219.051 94.44 217.791 92.76C216.577 91.0333 215.971 89.1667 215.971 87.16C215.971 85.62 216.367 84.08 217.161 82.54C218.001 80.9533 219.307 79.6467 221.081 78.62C222.901 77.5467 225.234 77.01 228.081 77.01C230.647 77.01 232.817 77.2667 234.591 77.78C236.364 78.2933 238.044 79.1333 239.631 80.3L235.921 86.04C235.034 85.34 234.031 84.7567 232.911 84.29C231.837 83.7767 230.834 83.4967 229.901 83.45C229.061 83.4033 228.337 83.4967 227.731 83.73C227.171 83.9633 226.727 84.2667 226.401 84.64C226.074 85.0133 225.911 85.41 225.911 85.83C225.864 86.7167 226.191 87.4167 226.891 87.93C227.637 88.4433 228.571 88.84 229.691 89.12C230.811 89.4 231.907 89.7267 232.981 90.1C234.474 90.5667 235.757 91.1967 236.831 91.99C237.904 92.7833 238.721 93.74 239.281 94.86C239.887 95.9333 240.191 97.24 240.191 98.78C240.191 100.647 239.701 102.42 238.721 104.1C237.787 105.733 236.341 107.063 234.381 108.09C232.467 109.117 230.017 109.63 227.031 109.63Z" fill="#0D0E43"/>
</svg>
