<svg width="192" height="60" viewBox="0 0 192 60" fill="none" xmlns="http://www.w3.org/2000/svg">
<path d="M0.7 13.522C0.7 11.7993 1.02867 10.1673 1.686 8.626C2.34333 7.08466 3.25 5.72466 4.406 4.546C5.58467 3.34467 6.94467 2.404 8.486 1.724C10.0273 1.044 11.682 0.703999 13.45 0.703999C15.1953 0.703999 16.8387 1.044 18.38 1.724C19.9213 2.404 21.2813 3.34467 22.46 4.546C23.6613 5.72466 24.5907 7.08466 25.248 8.626C25.928 10.1673 26.268 11.7993 26.268 13.522C26.268 15.29 25.928 16.9447 25.248 18.486C24.5907 20.0273 23.6613 21.3873 22.46 22.566C21.2813 23.722 19.9213 24.6287 18.38 25.286C16.8387 25.9433 15.1953 26.272 13.45 26.272C11.682 26.272 10.0273 25.9433 8.486 25.286C6.94467 24.6287 5.58467 23.722 4.406 22.566C3.25 21.3873 2.34333 20.0273 1.686 18.486C1.02867 16.9447 0.7 15.29 0.7 13.522ZM5.8 13.522C5.8 14.6327 5.99267 15.6753 6.378 16.65C6.786 17.602 7.34133 18.452 8.044 19.2C8.76933 19.9253 9.59667 20.492 10.526 20.9C11.478 21.308 12.5093 21.512 13.62 21.512C14.6853 21.512 15.6713 21.308 16.578 20.9C17.5073 20.492 18.312 19.9253 18.992 19.2C19.672 18.452 20.2047 17.602 20.59 16.65C20.9753 15.6753 21.168 14.6327 21.168 13.522C21.168 12.3887 20.964 11.3347 20.556 10.36C20.1707 9.38533 19.6267 8.53533 18.924 7.81C18.244 7.062 17.4393 6.484 16.51 6.076C15.5807 5.668 14.572 5.464 13.484 5.464C12.396 5.464 11.3873 5.668 10.458 6.076C9.52867 6.484 8.71267 7.062 8.01 7.81C7.30733 8.53533 6.76333 9.38533 6.378 10.36C5.99267 11.3347 5.8 12.3887 5.8 13.522ZM39.7171 26.408C38.8331 26.408 37.9605 26.2493 37.0991 25.932C36.2605 25.592 35.5578 25.116 34.9911 24.504L35.1271 23.11V33.14H30.4011V10.802H34.4811L35.1611 13.692L34.7871 12.672C35.5578 12.0147 36.4191 11.4707 37.3711 11.04C38.3231 10.6093 39.4225 10.394 40.6691 10.394C42.0518 10.394 43.2871 10.7227 44.3751 11.38C45.4631 12.0147 46.3131 12.944 46.9251 14.168C47.5598 15.3693 47.8771 16.82 47.8771 18.52C47.8771 20.1973 47.5258 21.6253 46.8231 22.804C46.1205 23.9827 45.1571 24.878 43.9331 25.49C42.7091 26.102 41.3038 26.408 39.7171 26.408ZM38.7651 22.668C39.5358 22.668 40.2385 22.498 40.8731 22.158C41.5305 21.818 42.0518 21.342 42.4371 20.73C42.8451 20.0953 43.0491 19.3813 43.0491 18.588C43.0491 17.7493 42.8678 17.024 42.5051 16.412C42.1651 15.7773 41.6891 15.29 41.0771 14.95C40.4878 14.5873 39.8305 14.406 39.1051 14.406C38.4705 14.406 37.9038 14.4967 37.4051 14.678C36.9291 14.8367 36.4985 15.086 36.1131 15.426C35.7505 15.7433 35.4331 16.1513 35.1611 16.65V20.288C35.3425 20.764 35.6031 21.1833 35.9431 21.546C36.2831 21.9087 36.6911 22.192 37.1671 22.396C37.6658 22.5773 38.1985 22.668 38.7651 22.668ZM58.9279 26.408C57.1146 26.408 55.5733 26.068 54.3039 25.388C53.0573 24.708 52.1053 23.7673 51.4479 22.566C50.7906 21.3647 50.4619 19.982 50.4619 18.418C50.4619 16.922 50.8473 15.5733 51.6179 14.372C52.3886 13.1707 53.4199 12.2187 54.7119 11.516C56.0039 10.7907 57.4433 10.428 59.0299 10.428C61.1606 10.428 62.9059 11.0513 64.2659 12.298C65.6486 13.522 66.5439 15.3013 66.9519 17.636L55.3919 21.308L54.3379 18.724L62.7019 15.902L61.7159 16.344C61.5346 15.7547 61.2059 15.2447 60.7299 14.814C60.2766 14.3607 59.5853 14.134 58.6559 14.134C57.9533 14.134 57.3299 14.304 56.7859 14.644C56.2646 14.9613 55.8566 15.426 55.5619 16.038C55.2899 16.6273 55.1539 17.33 55.1539 18.146C55.1539 19.0753 55.3239 19.8573 55.6639 20.492C56.0039 21.104 56.4686 21.5687 57.0579 21.886C57.6473 22.2033 58.3046 22.362 59.0299 22.362C59.5513 22.362 60.0499 22.2713 60.5259 22.09C61.0246 21.9087 61.5119 21.6707 61.9879 21.376L64.0959 24.912C63.3026 25.3653 62.4413 25.728 61.5119 26C60.6053 26.272 59.7439 26.408 58.9279 26.408ZM74.7289 11.142L75.1029 13.794L75.0349 13.556C75.5562 12.6267 76.2929 11.8787 77.2449 11.312C78.1969 10.7227 79.3642 10.428 80.7469 10.428C82.1522 10.428 83.3196 10.8473 84.2489 11.686C85.2009 12.502 85.6882 13.5673 85.7109 14.882V26H80.9509V16.65C80.9282 15.9927 80.7469 15.4713 80.4069 15.086C80.0896 14.678 79.5456 14.474 78.7749 14.474C78.0496 14.474 77.4149 14.712 76.8709 15.188C76.3269 15.664 75.9076 16.31 75.6129 17.126C75.3182 17.942 75.1709 18.8827 75.1709 19.948V26H70.4109V11.142H74.7289Z" fill="#0D0E43"/>
<path d="M72.998 56.926C72.726 57.1527 72.216 57.4587 71.468 57.844C70.7427 58.2293 69.8473 58.5693 68.782 58.864C67.7167 59.1587 66.538 59.2947 65.246 59.272C63.274 59.2267 61.506 58.8753 59.942 58.218C58.4007 57.538 57.086 56.62 55.998 55.464C54.9327 54.308 54.1167 52.982 53.55 51.486C52.9833 49.99 52.7 48.392 52.7 46.692C52.7 44.788 52.9833 43.0427 53.55 41.456C54.1393 39.8693 54.9667 38.498 56.032 37.342C57.12 36.186 58.412 35.2907 59.908 34.656C61.404 34.0213 63.0587 33.704 64.872 33.704C66.5493 33.704 68.034 33.9307 69.326 34.384C70.618 34.8373 71.672 35.3247 72.488 35.846L70.55 40.504C69.9833 40.0733 69.224 39.6313 68.272 39.178C67.3427 38.702 66.266 38.464 65.042 38.464C64.09 38.464 63.172 38.668 62.288 39.076C61.4267 39.4613 60.656 40.0167 59.976 40.742C59.3187 41.4673 58.7973 42.3173 58.412 43.292C58.0267 44.244 57.834 45.2867 57.834 46.42C57.834 47.6213 58.004 48.7207 58.344 49.718C58.7067 50.7153 59.2167 51.5767 59.874 52.302C60.5313 53.0047 61.3133 53.5487 62.22 53.934C63.1493 54.3193 64.192 54.512 65.348 54.512C66.6853 54.512 67.83 54.2967 68.782 53.866C69.734 53.4353 70.4593 52.982 70.958 52.506L72.998 56.926ZM75.999 51.384C75.999 49.8653 76.3504 48.5053 77.053 47.304C77.7784 46.1027 78.787 45.162 80.079 44.482C81.371 43.7793 82.8557 43.428 84.533 43.428C86.233 43.428 87.7064 43.7793 88.953 44.482C90.1997 45.162 91.1517 46.1027 91.809 47.304C92.489 48.5053 92.829 49.8653 92.829 51.384C92.829 52.9027 92.489 54.274 91.809 55.498C91.1517 56.6993 90.1997 57.6513 88.953 58.354C87.7064 59.0567 86.2104 59.408 84.465 59.408C82.833 59.408 81.371 59.0907 80.079 58.456C78.8097 57.8213 77.8124 56.9033 77.087 55.702C76.3617 54.5007 75.999 53.0613 75.999 51.384ZM80.793 51.418C80.793 52.1887 80.9517 52.8913 81.269 53.526C81.5864 54.138 82.017 54.6253 82.561 54.988C83.105 55.3507 83.717 55.532 84.397 55.532C85.145 55.532 85.791 55.3507 86.335 54.988C86.879 54.6253 87.2984 54.138 87.593 53.526C87.8877 52.8913 88.035 52.1887 88.035 51.418C88.035 50.6247 87.8877 49.922 87.593 49.31C87.2984 48.698 86.879 48.2107 86.335 47.848C85.791 47.4853 85.145 47.304 84.397 47.304C83.717 47.304 83.105 47.4853 82.561 47.848C82.017 48.2107 81.5864 48.698 81.269 49.31C80.9517 49.922 80.793 50.6247 80.793 51.418ZM100.897 44.142L101.271 46.76L101.203 46.556C101.792 45.5587 102.529 44.788 103.413 44.244C104.297 43.6773 105.362 43.394 106.609 43.394C107.425 43.394 108.139 43.5073 108.751 43.734C109.386 43.9607 109.918 44.3007 110.349 44.754C110.78 45.1847 111.074 45.7513 111.233 46.454L111.063 46.488C111.698 45.5587 112.457 44.8107 113.341 44.244C114.248 43.6773 115.188 43.394 116.163 43.394C117.636 43.394 118.804 43.8133 119.665 44.652C120.549 45.468 121.002 46.5333 121.025 47.848V59H116.299V49.82C116.276 49.1627 116.174 48.63 115.993 48.222C115.812 47.7913 115.392 47.5533 114.735 47.508C113.964 47.508 113.307 47.78 112.763 48.324C112.242 48.8453 111.845 49.5253 111.573 50.364C111.324 51.18 111.199 52.03 111.199 52.914V59H106.439V49.82C106.416 49.1627 106.292 48.63 106.065 48.222C105.861 47.7913 105.43 47.5533 104.773 47.508C104.025 47.508 103.39 47.78 102.869 48.324C102.37 48.8453 101.985 49.514 101.713 50.33C101.464 51.146 101.339 51.9847 101.339 52.846V59H96.5789V44.142H100.897ZM130.248 44.142L130.622 46.76L130.554 46.556C131.144 45.5587 131.88 44.788 132.764 44.244C133.648 43.6773 134.714 43.394 135.96 43.394C136.776 43.394 137.49 43.5073 138.102 43.734C138.737 43.9607 139.27 44.3007 139.7 44.754C140.131 45.1847 140.426 45.7513 140.584 46.454L140.414 46.488C141.049 45.5587 141.808 44.8107 142.692 44.244C143.599 43.6773 144.54 43.394 145.514 43.394C146.988 43.394 148.155 43.8133 149.016 44.652C149.9 45.468 150.354 46.5333 150.376 47.848V59H145.65V49.82C145.628 49.1627 145.526 48.63 145.344 48.222C145.163 47.7913 144.744 47.5533 144.086 47.508C143.316 47.508 142.658 47.78 142.114 48.324C141.593 48.8453 141.196 49.5253 140.924 50.364C140.675 51.18 140.55 52.03 140.55 52.914V59H135.79V49.82C135.768 49.1627 135.643 48.63 135.416 48.222C135.212 47.7913 134.782 47.5533 134.124 47.508C133.376 47.508 132.742 47.78 132.22 48.324C131.722 48.8453 131.336 49.514 131.064 50.33C130.815 51.146 130.69 51.9847 130.69 52.846V59H125.93V44.142H130.248ZM155.282 44.142H160.042V59H155.282V44.142ZM155.18 38.872C155.18 38.1693 155.452 37.5913 155.996 37.138C156.563 36.6847 157.163 36.458 157.798 36.458C158.433 36.458 159.011 36.6847 159.532 37.138C160.076 37.5913 160.348 38.1693 160.348 38.872C160.348 39.5747 160.076 40.1527 159.532 40.606C159.011 41.0367 158.433 41.252 157.798 41.252C157.163 41.252 156.563 41.0367 155.996 40.606C155.452 40.1527 155.18 39.5747 155.18 38.872ZM169.772 59.306C168.548 59.306 167.403 59.0907 166.338 58.66C165.295 58.2293 164.411 57.6287 163.686 56.858L165.658 54.24C166.383 54.8973 167.052 55.3733 167.664 55.668C168.299 55.94 168.865 56.076 169.364 56.076C169.749 56.076 170.089 56.042 170.384 55.974C170.701 55.8833 170.951 55.7587 171.132 55.6C171.313 55.4187 171.404 55.192 171.404 54.92C171.404 54.5347 171.245 54.2287 170.928 54.002C170.633 53.7753 170.248 53.594 169.772 53.458C169.296 53.2993 168.786 53.1407 168.242 52.982C166.882 52.5513 165.896 51.928 165.284 51.112C164.695 50.2733 164.4 49.3667 164.4 48.392C164.4 47.644 164.593 46.896 164.978 46.148C165.386 45.3773 166.021 44.7427 166.882 44.244C167.766 43.7227 168.899 43.462 170.282 43.462C171.529 43.462 172.583 43.5867 173.444 43.836C174.305 44.0853 175.121 44.4933 175.892 45.06L174.09 47.848C173.659 47.508 173.172 47.2247 172.628 46.998C172.107 46.7487 171.619 46.6127 171.166 46.59C170.758 46.5673 170.407 46.6127 170.112 46.726C169.84 46.8393 169.625 46.9867 169.466 47.168C169.307 47.3493 169.228 47.542 169.228 47.746C169.205 48.1767 169.364 48.5167 169.704 48.766C170.067 49.0153 170.52 49.208 171.064 49.344C171.608 49.48 172.141 49.6387 172.662 49.82C173.387 50.0467 174.011 50.3527 174.532 50.738C175.053 51.1233 175.45 51.588 175.722 52.132C176.017 52.6533 176.164 53.288 176.164 54.036C176.164 54.9427 175.926 55.804 175.45 56.62C174.997 57.4133 174.294 58.0593 173.342 58.558C172.413 59.0567 171.223 59.306 169.772 59.306ZM184.979 59.306C183.755 59.306 182.61 59.0907 181.545 58.66C180.502 58.2293 179.618 57.6287 178.893 56.858L180.865 54.24C181.59 54.8973 182.259 55.3733 182.871 55.668C183.506 55.94 184.072 56.076 184.571 56.076C184.956 56.076 185.296 56.042 185.591 55.974C185.908 55.8833 186.158 55.7587 186.339 55.6C186.52 55.4187 186.611 55.192 186.611 54.92C186.611 54.5347 186.452 54.2287 186.135 54.002C185.84 53.7753 185.455 53.594 184.979 53.458C184.503 53.2993 183.993 53.1407 183.449 52.982C182.089 52.5513 181.103 51.928 180.491 51.112C179.902 50.2733 179.607 49.3667 179.607 48.392C179.607 47.644 179.8 46.896 180.185 46.148C180.593 45.3773 181.228 44.7427 182.089 44.244C182.973 43.7227 184.106 43.462 185.489 43.462C186.736 43.462 187.79 43.5867 188.651 43.836C189.512 44.0853 190.328 44.4933 191.099 45.06L189.297 47.848C188.866 47.508 188.379 47.2247 187.835 46.998C187.314 46.7487 186.826 46.6127 186.373 46.59C185.965 46.5673 185.614 46.6127 185.319 46.726C185.047 46.8393 184.832 46.9867 184.673 47.168C184.514 47.3493 184.435 47.542 184.435 47.746C184.412 48.1767 184.571 48.5167 184.911 48.766C185.274 49.0153 185.727 49.208 186.271 49.344C186.815 49.48 187.348 49.6387 187.869 49.82C188.594 50.0467 189.218 50.3527 189.739 50.738C190.26 51.1233 190.657 51.588 190.929 52.132C191.224 52.6533 191.371 53.288 191.371 54.036C191.371 54.9427 191.133 55.804 190.657 56.62C190.204 57.4133 189.501 58.0593 188.549 58.558C187.62 59.0567 186.43 59.306 184.979 59.306Z" fill="#0D0E43"/>
</svg>